<svg id="Calque_1" data-name="Calque 1" xmlns="http://www.w3.org/2000/svg" viewBox="0 0 644.5 504.2"><defs><style>.cls-1{fill:#231f20;}.cls-2{fill:#243b7d;}.cls-3{fill:#ed1c24;}.cls-4{fill:#939598;}.cls-5{fill:none;}.cls-6{isolation:isolate;}</style></defs><g id="vect"><path class="cls-1" d="M221,462.6c1.7,0,3.2,1.3,2.4,4.6l-8,1.8c1.4-3.6,3.7-6.4,5.6-6.4m4.4,12.9h-1.6c-2,2.4-4.1,4.2-6.2,4.2s-3.3-1.3-3.3-4.2a13.42,13.42,0,0,1,.4-3.5l12.9-4.2c2.5-5.9-.5-8.5-4-8.5-6.1,0-13,10.1-13,19,0,4,1.9,6.2,4.9,6.2,3.3-.1,6.9-3.5,9.9-9m-2.5-18.7,9-8.4v-1H227l-5.6,9.4Zm-27.7,5.9h4.3l-6.8,18.5c-.6,1.6.2,3.2,1.9,3.2,3.8,0,10-3.8,12.2-9h-1.3c-1.7,1.8-5,4.2-7.8,4.7l6.2-17.4h6.4l.8-2.6h-6.2l2.4-6.7h-2.5l-4.4,6.7-5.2.8Zm-5.8-.8a1.92,1.92,0,0,0-.9-2.5c-.2-.1-.4-.1-.6-.2-3.7,0-8.1,3.3-9.9,8h1.2c1.2-1.7,3.2-3.6,5.1-3.9l-7.1,18.4a1.86,1.86,0,0,0,1.5,2.7c3.5,0,7.6-3.4,9.4-8h-1.2c-1.2,1.7-3.2,3.6-5.1,3.9Zm1.3-9.3a3.1,3.1,0,0,0,3.1-3h0a3.1,3.1,0,0,0-6.2-.1h0a2.93,2.93,0,0,0,2.9,3l.2.1m-40.8,28.3c-.9,2.1.1,3.4,2.1,3.4a2,2,0,0,0,2.3-1.7l4.9-13c2.3-2.8,6.9-5.7,8.8-5.7,1.4,0,1.2,1.1.3,2.8l-7.6,14.5a2.14,2.14,0,0,0,.8,2.9,1.93,1.93,0,0,0,1,.3c3.7,0,8.1-3.3,9.9-8h-1.2c-1.2,1.7-3.2,3.6-5.1,3.9l6.5-13.1a10.07,10.07,0,0,0,1.2-4.5,3.16,3.16,0,0,0-2.8-3.5h-.5c-3.2,0-6.4,3.6-10.3,8.1v-3.4c0-2.5-.8-4.6-3-4.6-1.4,0-2.7,1.2-4,2.9v.5c2.4-.1,3.5,3.5,1.8,7.3Zm-.1-16.1c.9-3,.4-5.7-1.9-5.7-2.7,0-3.4,2.1-6.2,8.1v-3.4c0-2.5-.8-4.6-3-4.6-2.6,0-4.9,4-6.8,8h1.2c1.2-1.8,2.4-2.9,3.3-2.9,1.1,0,1.7,1.7,0,5.5l-5,11.1c-.9,2.1.1,3.4,2.1,3.4a2,2,0,0,0,2.3-1.7l4.9-13c1.4-1.7,2.6-3.2,4.2-4.9h4.9Zm-28.4-2.2c1.7,0,3.2,1.3,2.4,4.6l-8,1.8c1.4-3.7,3.7-6.4,5.6-6.4m4.4,12.8h-1.6c-2,2.4-4.1,4.2-6.2,4.2s-3.3-1.3-3.3-4.2a13.42,13.42,0,0,1,.4-3.5l12.8-4.2c2.5-5.9-.5-8.5-4-8.5-6.1,0-13,10.1-13,19,0,4,1.9,6.2,4.9,6.2,3.4-.1,7-3.4,10-9M95.5,462.7h4.3L93,481.2c-.6,1.6.2,3.2,1.9,3.2,3.8,0,10-3.8,12.2-9h-1.2c-1.7,1.8-5,4.2-7.8,4.7l6.2-17.4h6.3l.8-2.6h-6.1l2.4-6.7h-2.4l-4.4,6.7-5.2.8ZM72.2,477.2c0-5.7,6.3-13.4,9.9-13.4a8.33,8.33,0,0,1,2.2.3L80.6,474c-2.1,2.6-5.4,5.7-6.9,5.7-1,0-1.5-.8-1.5-2.5m19.5-19-1.9-.1-2.2,2.1h-.5c-10.6,0-19.7,11.9-19.7,20.5a3.55,3.55,0,0,0,3.2,3.8h.6c2.7,0,5.4-3.9,8.4-8.1l-.1,1.5c-.4,4.3.9,6.6,3.1,6.6,2.6,0,5-4,6.8-8H88.2c-1.2,1.8-2.4,2.9-3.3,2.9s-1.7-1.8,0-5.5Zm-22.5,6.7c.9-3,.4-5.7-1.9-5.7-2.7,0-3.4,2.1-6.2,8.1v-3.4c0-2.5-.8-4.6-3-4.6-2.6,0-5,4-6.8,8h1.2c1.2-1.8,2.4-2.9,3.3-2.9,1.1,0,1.7,1.7,0,5.5l-5,11.1c-.9,2.1,0,3.4,2.1,3.4,1.2,0,1.8-.3,2.3-1.7l4.9-13c1.4-1.7,2.6-3.2,4.2-4.9h4.9ZM33.7,483.5l.5-1.4c-6.2-1.2-6.9-1.2-4.5-7.9l2.5-6.9H39c3.1,0,3.1,1.2,2.6,4.6h1.8l4.1-11.2H45.7c-1.5,2.6-2.7,4.6-6.1,4.6H32.9l3.6-9.8c1.1-3.1,1.8-3.8,5.9-3.8h3c4.3,0,4.8,1.2,4.8,5.5h1.7l1.4-7.6H27.8l-.5,1.4c5,1,5.4,1.5,3.1,7.9l-5.5,15.3c-2.3,6.3-3.3,6.8-9,7.9l-.4,1.4Z"/><path class="cls-1" d="M159,404.8c1.7,0,3.2,1.3,2.4,4.6l-7.9,1.8c1.4-3.7,3.7-6.4,5.5-6.4m4.4,12.8h-1.6c-2,2.4-4.1,4.2-6.2,4.2s-3.3-1.3-3.3-4.2a13.42,13.42,0,0,1,.4-3.5l12.8-4.2c2.5-5.9-.5-8.5-4-8.5-6.1,0-13,10.1-13,19,0,4,1.9,6.2,4.9,6.2,3.4-.1,7-3.5,10-9m-2.6-18.7,9-8.4v-1h-4.9l-5.6,9.4Zm-27.7,6h4.3l-6.8,18.5c-.6,1.6.2,3.1,1.9,3.1,3.8,0,10.1-3.8,12.2-9h-1.2c-1.7,1.8-5,4.2-7.8,4.7l6.2-17.4h6.3l.8-2.6h-6.1l2.4-6.7h-2.4l-4.4,6.7-5.2.7Zm-5.7-.9a1.92,1.92,0,0,0-.9-2.5c-.2-.1-.4-.1-.6-.2-3.7,0-8.1,3.3-9.9,8h1.2c1.2-1.7,3.2-3.6,5.1-3.9l-7.1,18.4a1.86,1.86,0,0,0,1.5,2.7c3.5,0,7.6-3.4,9.4-8h-1.2c-1.2,1.7-3.2,3.6-5.1,3.9Zm1.3-9.3a3.05,3.05,0,1,0-3-3.1v.1a3,3,0,0,0,3,3h0m-24.6,27.7L117,388.5l-.4-.5-8.1.9v1l1.6,1.2c1.4,1.1,1,2.2-.3,5.6L99.7,423.3a2.14,2.14,0,0,0,.8,2.9,1.93,1.93,0,0,0,1,.3c3.7,0,7.6-3.3,9.4-8h-1.2a9.22,9.22,0,0,1-5.6,3.9m-24.6-3.1c0-5.7,6.4-13.4,9.9-13.4a8.33,8.33,0,0,1,2.2.3l-3.7,9.9c-2.1,2.6-5.4,5.8-6.9,5.8-.9-.1-1.5-.8-1.5-2.6m19.5-19-2-.1-2.2,2.1h-.3c-10.6,0-19.7,11.9-19.7,20.5a3.55,3.55,0,0,0,3.2,3.8h.6c2.7,0,5.4-3.9,8.4-8.1l-.1,1.5c-.4,4.3.9,6.6,3.1,6.6,2.6,0,4.9-4,6.8-8H95.6c-1.2,1.8-2.4,2.9-3.3,2.9s-1.7-1.8,0-5.5ZM51.9,431.1c0-2.5,2.4-4,5.7-5.3a42.91,42.91,0,0,0,5,1.9c3.5,1.2,4.9,1.6,4.9,2.7,0,2.3-3.8,4-9.1,4-4.4,0-6.5-1-6.5-3.3m9.6-15c-1.5,0-2.1-1.3-2.1-2.8,0-4.1,2.2-10.2,5.7-10.2,1.5,0,2.1,1.3,2.1,2.8,0,4.1-2.2,10.2-5.7,10.2m10,12.7c0-3-2.6-4-6.9-5.3-3.7-1.1-5.4-1.4-5.4-2.6,0-1,.8-2.1,2.4-3a10.81,10.81,0,0,0,10-10.4,7,7,0,0,0-.5-2.5h5.1l.8-2.6H68.9a6.29,6.29,0,0,0-3.3-.9A10.8,10.8,0,0,0,55,411.7a6.14,6.14,0,0,0,4.9,6.2c-3,1.3-4.7,2.9-4.7,4.8a3,3,0,0,0,1.2,2.5c-7,2-9.7,4.4-9.7,7.6s4.2,4.5,9.2,4.5c8.5-.1,15.6-4.7,15.6-8.5M39.1,409c3.1,0,3.1,1.2,2.6,4.6h1.8l4.1-11.2H45.8c-1.5,2.6-2.7,4.6-6.1,4.6H33l3.4-9.3c1.1-3.1,1.8-3.7,5.9-3.7h3c4.3,0,4.8,1.1,4.8,5.5h1.7l1.4-7.6H27.8l-.5,1.4c5,1,5.4,1.5,3.1,7.9l-5.6,15.2c-2.3,6.4-3.3,6.9-9,7.9l-.4,1.5H43.8l5.1-8.1H47c-3.2,3.1-7.3,6-13,6-7.5,0-6.8-.3-4.3-7.2l2.7-7.4h6.7Zm3.7-19.4,9-6.2v-1H46.5l-5,7.2Z"/><path class="cls-1" d="M156,346.9c1.7,0,3.2,1.3,2.4,4.6l-8,1.9c1.4-3.8,3.7-6.5,5.6-6.5m4.4,12.8h-1.6c-2,2.4-4.1,4.2-6.2,4.2s-3.3-1.3-3.3-4.2a13.42,13.42,0,0,1,.4-3.5l12.9-4.2c2.5-5.9-.5-8.5-4-8.5-6.1,0-13,10.1-13,19,0,4,1.9,6.2,4.9,6.2,3.3-.1,6.9-3.5,9.9-9m-2.6-18.6,9-8.4v-1h-4.9l-5.6,9.4ZM131.3,347h3.4l-6.8,18.5c-.6,1.6.2,3.1,1.9,3.1,3.8,0,10-3.8,12.2-9h-1.2c-1.7,1.8-5,4.2-7.8,4.7l6.2-17.4h6.3l.8-2.6h-6.2l2.4-6.7h-2.4l-4.4,6.7-4.4.7Zm-3.3,2.1c.9-3,.4-5.6-1.9-5.6-2.7,0-3.4,2.1-6.2,8.1v-3.4c0-2.5-.8-4.6-3-4.6-2.6,0-5,4-6.8,8h1.2c1.2-1.8,2.4-2.9,3.3-2.9,1.1,0,1.7,1.7,0,5.5l-5,11.1c-.9,2.1,0,3.4,2.1,3.4,1.2,0,1.8-.3,2.3-1.7l4.9-13c1.4-1.7,2.6-3.2,4.2-4.9Zm-28.5-2.3c1.7,0,3.2,1.3,2.4,4.6l-8,1.9c1.4-3.7,3.8-6.5,5.6-6.5m4.4,12.9h-1.6c-2,2.4-4.1,4.2-6.2,4.2s-3.3-1.3-3.3-4.2a13.42,13.42,0,0,1,.4-3.5L106,352c2.5-5.9-.5-8.5-4-8.5-6.1,0-13,10.1-13,19,0,4,1.9,6.2,4.9,6.2,3.4-.1,7-3.5,10-9m-31.4,5.2c-1.2,0-3-1.2-3-2.2a25.33,25.33,0,0,1,1.2-3.6l2.1-5.5c2.2-2.6,5.6-5.5,7.5-5.5,1.2,0,2,.7,2,2.5,0,5.1-4.7,14.3-9.8,14.3m14.6-16.3c0-3.8-1.4-5.1-4-5.1-3.2,0-6.3,3.4-9.4,7.6l7.8-20.3-.4-.5-8.1.9v1l1.6,1.2c1.4,1.1,1,2.3-.3,5.6L66,360.5a19.84,19.84,0,0,0-1.3,3.9c0,2.2,3,4.3,5.7,4.3,6.2,0,16.7-11.4,16.7-20.1m-25.2-2.4a1.92,1.92,0,0,0-.9-2.5c-.2-.1-.4-.1-.6-.2-3.7,0-8.1,3.3-9.9,8h1.2c1.2-1.7,3.2-3.6,5.1-3.9L49.7,366a1.86,1.86,0,0,0,1.5,2.7c3.5,0,7.6-3.4,9.4-8H59.5c-1.2,1.7-3.2,3.6-5.1,3.9Zm1.3-9.3a3.1,3.1,0,1,0-3.1-3.1h0a3.18,3.18,0,0,0,3.1,3.1m-18.6-3H27.7l-.5,1.4c5,1,5.4,1.5,3.1,7.9l-5.5,15.2c-2.3,6.3-3.3,6.9-9,7.9l-.4,1.5H41.1l5.6-9.9h-2c-3.2,3.5-6.8,7.8-12.6,7.8-4.3,0-4.8-.7-2.5-7.2l5.5-15.2c2.3-6.3,3.3-6.9,9-7.9Z"/><path class="cls-2" d="M110.6,82c.9-.9,1.8-1.9,2.7-2.8h0a53.94,53.94,0,0,1,5.3-5.4,11.51,11.51,0,0,1,1.7-1.4c.2-.2.2-.5.3-.6-.8.3-1.3,1-2.1,1.3-.2,0-.3-.2-.2-.3l1.7-1.3h-.1c-.2,0-.2-.2-.2-.3-2.1-.3-3.6,1.1-5.1,2.4-.3.2-.6-.2-.8-.2-2.4.8-4.1,2.9-6.5,3.8v-.3c-1,.3-1.9.9-2.9,1.1a13.42,13.42,0,0,1-4,.1,58.62,58.62,0,0,0-5.8,1h-.2a14.76,14.76,0,0,0-2.9,1.2l-.1.1-.2.3a5.24,5.24,0,0,1-1.1,1,16.38,16.38,0,0,0-2.6,2,.37.37,0,0,1-.3.1c-.9.8-1.7,1.6-2.6,2.4a.9.9,0,0,1-.5.1h0l.1-.1.4-.7a3,3,0,0,1,.5-.7c.2-.2.4-.7.7-1,.1-.1.1-.1,0-.2h0c-.1-.1-.1-.1-.2-.1a13.5,13.5,0,0,1,2.7-2h0c-.1,0-.3,0-.2-.2a1.38,1.38,0,0,1,.3-.4c.1-.1,0-.1.1-.1l-.1-.1a4.23,4.23,0,0,0-.7.5c-.4.3-.7,1-1.3,1h-.2c-.1,0-.1,0-.2-.1h0V82h0l.1-.1a.1.1,0,0,1,.1-.1l.1-.1c0-.1.1-.1.1-.2l.1-.1.2-.4.1-.2c.1-.1.1-.2.2-.3s0-.2,0-.3h-.1a5.24,5.24,0,0,1,1.1-1h-.1c.6-.3,1.2-.7,1.8-1L90,78a11.51,11.51,0,0,0-2.5,1.2c-.1,0-.2.1-.3.1a.6.6,0,0,1-.4-.1v-.1a4.36,4.36,0,0,1,1-.8c.2,0,.3,0,.3.2,5.1-4,12-3,17.9-5.1l1.4-.9c.8-.3,1.4-1.1,2.4-1.6a7.36,7.36,0,0,0,2.7-3.6c0-.1-.1-.2-.1-.3a23.67,23.67,0,0,1-7,5.2c-3.3,1.7-7,1.4-10.5,1.9a.83.83,0,0,1,.8-.3c0-.5.3-.6.6-.9h.5c.1,0,.1-.3.3-.3s.8-.2.6-.2c-.5-.6-1.4.5-2.2,0,.3-.3.2-.8.5-1h.6a.71.71,0,0,1,.3-.6c2.4-1.4,4.6-2.5,6.8-3.8-.5,0-.8.5-1.3.2.3,0,0-.5.3-.5a51.56,51.56,0,0,0,4.9-2.1c-.6,0-1.1.5-1.7,0,.3-.1.5-.5,1-.5v-.5c0-.1.2-.1.3-.1-.1,0-.2-.1-.3-.2.2-.3.6-.2.9-.5-.2,0-.5,0-.5-.2a2.72,2.72,0,0,1,2.1-.9c-.2-.3-.6,0-.6-.3,0-.1.2-.1.3-.1h-.3a.55.55,0,0,1-.2-.6c1-1.1,1-2.5,1.4-3.8-.2,0-.3,0-.3-.2-1.6,1.7-4.1,2.4-6.5,3h-.8a3.19,3.19,0,0,1-2.7-.2,10.1,10.1,0,0,1-1.6-1.3,18.39,18.39,0,0,0-4-1.9,33.71,33.71,0,0,0-12.2-1.7c1.7-1,3.7-1,5.5-1.6,2.7-.8,5.2-1.8,8.1-1.6a4.3,4.3,0,0,0-1.6,0c-2.2-.2-4.4.5-6.8,1-1.6.3-3,.9-4.6,1.3-1,.3-1.4,1.3-2.5,1.1v-.5c1.6-1.9,3.5-3.8,6-4,2.9-.5,5.5,0,8.4.3a42.09,42.09,0,0,1,6,1.1c.8,0,.9,1.3,1.6,1.4,1,.3,1.9,0,2.9.6,0-.3-.2-.6,0-.9.6-.6,1.4.2,2.1-.2,1.3-.8-1.1-2.2-1.8-3.3,0-.1.1-.2.2-.3,1.3,1.1,2.2,2.4,3.8,3.2.8.3,2.7.8,2.4-.2-.8-1.7-2.4-3.2-3.6-4.8v-.6c-.3,0-.3-.2-.5-.3v-.6c-.6-.3-.5-1-.8-1.4-.5-.8-.2-1.9-.5-2.8a13.1,13.1,0,0,1-.6-2.7c-.5-2.7-1.1-5.1-1.4-7.6-.3-3,1.8-5.4,3.2-8.1a14.43,14.43,0,0,1,4.4-5.1,14.63,14.63,0,0,1,3-5.1,13.44,13.44,0,0,1,4.9-3.2,36.06,36.06,0,0,1,4.2-1.6H15.3V92h77c3-2.2,6-3.2,10.2-5.3C104.5,85.6,109.1,83.5,110.6,82ZM86.3,70.6c-.3,0-.9.1-.8-.2.1-.8,1.3-.8,1.9-1.1.3-.2.8-.5,1.1-.3.3.5.8.3,1.1.6-1,1-2.2.5-3.3,1ZM62,67.1c-.1-.1-.1-.2-.2-.3a48.12,48.12,0,0,0,5.1-8.1,25.38,25.38,0,0,0,5.4-4.4,30.34,30.34,0,0,1,8.9-7,5.78,5.78,0,0,1,4.1.2c-.5.6-1.3.5-1.9,1a.55.55,0,0,1-.5-.2.76.76,0,0,0,.2-.5c-1.6,1.8-3.8,2.5-5.1,4.6-1,1.6-1.6,3.6-3.6,4.1-.6.2.2-.5-.2-.3-4.9,3-8.4,6.6-12.2,10.9ZM75.2,56.7c-.1.3-.3.4-.5.6a1.17,1.17,0,0,1-.6.6c-.1,0-.3,0-.3-.2a1.71,1.71,0,0,1,1.3-1.4c.1,0,.1.2.1.4Zm7.3,23.7a1.76,1.76,0,0,1-.4.5c.2,0,.3.1.2.2a2.55,2.55,0,0,1-1.2.8h-.2l-.6.6c-.2.2-1.1,0-.8-.2a12,12,0,0,1,1.2-1.1c.2-.2.5-.4.7-.6a1.38,1.38,0,0,0,.3-.4C81.8,80.2,82.6,80.1,82.5,80.4Zm-2.8-1.3h0l-1.8,1.2a13.55,13.55,0,0,1-2.1,1h0a.37.37,0,0,0-.3-.1,6.1,6.1,0,0,0-1.6,1.2l-.2.2h0l-.2.2h0a1.38,1.38,0,0,0-.3.4c-.1.1-.1.2-.2.2s-.4.1-.4-.1h0l-.3.1-.2.1h-.2l-.6.5a9,9,0,0,0-.9,1h0v.1l-.1.1h0l-.1.2h0l-.1.1a.1.1,0,0,0-.1-.1v-.1c0-.1-.1-.2-.1-.3h0v-.1l.5-.6h0l.2-.2.3-.3.1-.1a4.23,4.23,0,0,0,.5-.7h0l.1-.1c.1-.1.2-.2.2-.3l.2-.3h0v-.1c.1-.1.1-.2.1-.4h0v-.3h0v-.3l.6-.9h-.2c-.2.1-.4.4-.6.5s-.5-.1-.3-.2.2-.2.4-.3h0a3,3,0,0,1,.8-.8,1.76,1.76,0,0,0,.5-.4l.1-.1c.1-.1.2-.3.4-.4h0c1.5-1.5,4.1-1.4,6.1-2.3.8-.3,1.7.2,2.5,0a3.19,3.19,0,0,1,1.4.3c-1.5.8-2.8,1.7-4.1,2.5Zm3.2-11c-.2-.2.5,0,.6-.3H82.3c-.2,0-.2-.2-.2-.3-.8.1-1.8.5-2.5.6-1.1.3-2.1,1.1-3.3,1.4-1.7.6-3.2,2.1-5.1,2.7-.2,0-.2-.2-.2-.3.2-.5.8-.6,1.1-1.1,0-.1,0-.3-.2-.3,1.3-1.8,3-2.7,4.6-4.1v-.5c.5-.6,1.3-1,1.6-1.7a2.48,2.48,0,0,1,1.6-1.4c-.2-.2-.5-.2-.5-.5-.6,0-1.3.3-1.9-.2a2.07,2.07,0,0,1,1-.6.76.76,0,0,1-.4-.2c-.2-.3.3-.7.8-.8a4.67,4.67,0,0,0,1.9-.6c-1.1-.2-2.4.3-3.5-.3a9,9,0,0,1,4-4.8c.1,0,.5,0,.5.2a1.6,1.6,0,0,1-1.3,1.6,23.39,23.39,0,0,1,3.8.9.55.55,0,0,1-.6.2c.8.5,1.8.2,2.5.8-.5.5-.9,0-1.4,0,4.9,1.4,10.1,2.5,14.3,5.7A42.78,42.78,0,0,1,88,67.5a3,3,0,0,1-1.3-.2c0,.2,0,.5-.2.5a2.32,2.32,0,0,0-1.6.3,1.81,1.81,0,0,1-2,0Z"/><path class="cls-3" d="M245.9,8H155.7a3.55,3.55,0,0,1,.9.4l2.3,1.2a8.06,8.06,0,0,1,3,2.5c.3.5.8,1.4.5,2.1s-.5,2.1-1.3,2.4a6.24,6.24,0,0,1-3.3.3,6.28,6.28,0,0,1-1.9-.3c2.4,1,4.6,2.1,6.2,4.3a1.81,1.81,0,0,0,1.4.5c.1,0,.1.3.1.5-.3.3-.6.5-.5,1h.5c.8-.3.6-1.9,1.8-1.4a1.76,1.76,0,0,1,.6,2.4,14.62,14.62,0,0,1-1.9,1.6,1.08,1.08,0,0,0,0,1.1,4.55,4.55,0,0,1,.8,1.9c.5,1.1.6,2.4,1.1,3.5a21.5,21.5,0,0,1,1.1,7.1c0,1.3-.6,2.4-.2,3.6a10.62,10.62,0,0,0,1.8,3.3c.6.8,1.2,1.7,1.7,2.5,1,1.6,2.7,3.2,1.9,5.1-.5,1.1-2.2,1-3.3,1.6-.9.8-.2,2.1.3,2.9.8,1.4-1,2.4-2.1,2.9.3.5.9.3,1.1.6.2.8,1,1.3.5,2.1s-2.5,1.4-1.6,2.9c.6,1.1.2,2.3-.2,3.5a4.15,4.15,0,0,1-2.9,2.4,7.62,7.62,0,0,1-3,.2,1.61,1.61,0,0,0-.9-.3c-2.7-.3-5.4-1.1-8.1-1.1a7.94,7.94,0,0,0-2.2.6,15.37,15.37,0,0,0-1.9,1.7h0l-.4.4-.2.2-.1.2a9.39,9.39,0,0,0-1.2,1.8l-.1.1c0,.1-.1.1-.1.2a14.76,14.76,0,0,0-1.2,2.9c-1.1,3.6-.6,6.7.1,7.5.2.2,5.2,1.8,8.7,3.3a25.83,25.83,0,0,1,3.7,1.9h88.6Z"/><path class="cls-4" d="M161.1,38.6c.6.2,1.6.2,1.6.5-.3,1.3-2.2,1.6-3.2,2.9H159c-.5.3-.3,1.1-.8,1.1a1.7,1.7,0,0,0-1.4.2,2.8,2.8,0,0,0,2.4,1,.63.63,0,0,1,.5.6c.1,0,.2-.1.3-.2s.3,0,.3.2v.6c-.5.6-1.3.3-1.9.5a7.31,7.31,0,0,0,3.6,0c1-.3,0-1.9.6-2.7-.3,0,0-.5-.3-.5a9,9,0,0,1,.9-1,1.05,1.05,0,0,0,.9-.5c0-.3-.6-.5-.5-.8,1-.6,1.7-1.6,1.4-2.5-.2-.5-1.4-.5-2.2-.8a5,5,0,0,0-2.7.2,21,21,0,0,0-2.4.6,10.81,10.81,0,0,0-3,1.6,20.14,20.14,0,0,1,3.5-1A7.06,7.06,0,0,1,161.1,38.6Z"/></g><g id="zone"><rect class="cls-5" x="15.3" y="8" width="636.2" height="504.2"/><g class="cls-6"><path class="cls-1" d="M30.9,133.6H47.6l23.8,63H57.8l-6-16.4H26.6l-6,16.4H7Zm17,35.7-8.6-23.7-8.6,23.7Z"/></g><g class="cls-6"><path class="cls-1" d="M125.2,177.8l10.1,7.7c-5.8,7.8-15.1,12.9-26.5,12.9-19.9,0-33.5-15.3-33.5-33.3s13.6-33.3,33.5-33.3c11.4,0,20.8,5.1,26.5,12.8l-10.1,7.8a19.8,19.8,0,0,0-16.5-8.6c-11.9,0-20.3,9.3-20.3,21.3s8.5,21.3,20.3,21.3A19.8,19.8,0,0,0,125.2,177.8Z"/></g><g class="cls-6"><path class="cls-1" d="M162.7,133.6h16.7l23.8,63H189.6l-6-16.4H158.5l-6,16.4H138.9Zm17,35.7-8.6-23.7-8.6,23.7Z"/><path class="cls-1" d="M213.9,133.6h24.7c20,0,33.5,14.5,33.5,31.5s-13.5,31.5-33.5,31.5H213.9Zm12.8,11.6V185h12.1c11.7,0,20.2-8.7,20.2-19.9s-8.5-19.9-20.2-19.9Z"/><path class="cls-1" d="M285.4,133.6h36.7v10.9H298.2v14.6h20.3V170H298.2v15.7h23.9v10.9H285.4Zm12.4-5.4L308,116.1h13.1l-11.7,12.1Z"/><path class="cls-1" d="M337.8,133.6h16.1l15.2,25.9,15.2-25.9h16.2v63H387.7V151.8l-14,23.2h-9l-14-23.2v44.8H337.9v-63Z"/><path class="cls-1" d="M418.9,133.6h12.8v63H418.9Z"/><path class="cls-1" d="M450.3,133.6H487v10.9H463.1v14.6h20.3V170H463.1v15.7H487v10.9H450.3Z"/></g><g class="cls-6"><path class="cls-1" d="M14.9,224.8H39.6c20,0,33.5,14.5,33.5,31.5s-13.5,31.5-33.5,31.5H14.9Zm12.8,11.6v39.8H39.8c11.7,0,20.2-8.7,20.2-19.9s-8.5-19.9-20.2-19.9Z"/><path class="cls-1" d="M86.4,224.8h36.7v10.9H99.2v14.5h20.3v10.9H99.2v15.7h23.9v10.9H86.4Z"/></g><g class="cls-6"><path class="cls-1" d="M156.7,224.8h51.7v11.6H189v51.4H176.2V236.4H156.8V224.8Z"/></g><g class="cls-6"><path class="cls-1" d="M279.1,256.3c0,18-13.6,33.3-33.4,33.3s-33.5-15.3-33.5-33.3S225.8,223,245.7,223,279.1,238.3,279.1,256.3Zm-13.2,0c0-12.1-8.5-21.3-20.2-21.3-11.9,0-20.3,9.3-20.3,21.3s8.5,21.3,20.3,21.3S265.9,268.3,265.9,256.3Z"/></g><g class="cls-6"><path class="cls-1" d="M329.4,224.8h12.8v38.3c0,16.6-9.7,26.5-25.6,26.5-15.7,0-25.5-9.9-25.5-26.5V224.8h12.8v39.4c0,8.5,4.8,13.4,12.8,13.4,7.8,0,12.7-4.9,12.7-13.4V224.8Z"/></g><g class="cls-6"><path class="cls-1" d="M358.9,224.8h12.8v51.4h23.9v11.6H358.9v-63Z"/></g><g class="cls-6"><path class="cls-1" d="M467,256.3c0,18-13.6,33.3-33.4,33.3s-33.5-15.3-33.5-33.3S413.7,223,433.6,223,467,238.3,467,256.3Zm-13.1,0c0-12.1-8.5-21.3-20.2-21.3-11.9,0-20.3,9.3-20.3,21.3s8.5,21.3,20.3,21.3S453.9,268.3,453.9,256.3Z"/></g><g class="cls-6"><path class="cls-1" d="M517.3,224.8h12.8v38.3c0,16.6-9.7,26.5-25.6,26.5-15.7,0-25.5-9.9-25.5-26.5V224.8h12.8v39.4c0,8.5,4.8,13.4,12.8,13.4,7.8,0,12.7-4.9,12.7-13.4Z"/><path class="cls-1" d="M550.4,270.5c3.8,4.9,8.8,7.7,13.9,7.7s8.1-2.7,8.1-7.3c0-11.2-28.8-8.7-28.8-29.7,0-10,8.2-18.3,20.2-18.3,9.5,0,16.7,4.2,22,10.6l-9.4,8.4c-3.7-4.8-7.8-7.8-12.6-7.8-4.4,0-7.3,2.9-7.3,6.6,0,11.2,28.8,8.6,28.8,30-.2,11.7-9.4,18.9-20.9,18.9-10.6,0-17.8-3.9-23.4-10.5Z"/><path class="cls-1" d="M599.7,224.8h36.8v10.9h-24v14.5h20.3v10.9H612.5v15.7h24v10.9H599.8V224.8Z"/></g></g></svg>